:SAMPLES-PER-SECOND 30
:FULLY-SPECIFIED
:DEGREES
150
root  -3.1026 40.9261 0.260861 177.693 -59.3966 -176.489
RightUpLeg  -1.72901 2.10991 1.55803
RightLeg  -1.78413 3.85878 0.0632763
RightFoot  3.18017 -0.384376 3.18605
RightToes  -3.10678e-008 1.75238e-005 3.56266e-009
Spine  7.1595 -6.15894 -10.5789
Spine1  -10.4415 -7.69634 14.8089
HEad  -6.84733 -18.7599 2.35399
LeftShoulder1  1.47934 -1.94549 -20.7343
LeftArm  -17.3845 -10.3266 -45.3801
LeftForeArm  125.249 -78.8517 -118.903
LeftHand  -0.63526 -3.72977 8.34794
RightShoulder  1.01458 0.416286 19.5147
RightArm  -14.2144 -13.1998 41.5842
RightForeArm  93.7311 79.4618 99.9767
RightHand  -0.33409 8.39608 -3.17706
LeftUpLeg  6.30838 2.79306 2.24288
LeftLeg  -6.00278 45.7111 -4.51128
LeftFoot  -0.536622 0.387553 -4.06365
LeftToes  4.7643e-008 1.47522e-008 1.32869e-009
151
root  -3.10813 40.9371 0.197047 178.049 -59.9119 -176.473
RightUpLeg  -1.92586 2.00522 1.49705
RightLeg  -2.01997 3.49074 0.190954
RightFoot  3.26382 -0.401062 3.30222
RightToes  -3.10678e-008 1.75238e-005 3.56266e-009
Spine  7.91512 -5.91018 -10.6559
Spine1  -12.2624 -7.26488 15.1977
HEad  -7.30667 -18.5731 3.59567
LeftShoulder1  1.37169 -1.57236 -20.5957
LeftArm  -17.5672 -10.3243 -45.3172
LeftForeArm  125.856 -78.7468 -119.762
LeftHand  -0.575372 -3.18066 8.03913
RightShoulder  0.76326 -0.385237 18.0434
RightArm  -14.9739 -12.5288 42.7239
RightForeArm  95.9505 79.4021 101.959
RightHand  -0.158553 8.08942 -1.74513
LeftUpLeg  6.02603 2.64411 2.26653
LeftLeg  -6.34918 45.3648 -4.64342
LeftFoot  -0.332845 0.399076 -4.12099
LeftToes  4.7643e-008 1.47522e-008 1.32869e-009
152
root  -3.11188 40.9537 0.118553 178.464 -60.5246 -176.512
RightUpLeg  -2.04888 1.82061 1.39395
RightLeg  -2.39398 3.07544 0.373508
RightFoot  3.38883 -0.420197 3.42834
RightToes  -3.10678e-008 1.75238e-005 3.56266e-009
Spine  8.53106 -5.76184 -10.2907
Spine1  -13.9889 -6.85636 14.8011
HEad  -8.0186 -18.3505 3.39622
LeftShoulder1  1.40856 -1.74228 -20.4033
LeftArm  -18.0654 -10.1137 -45.2658
LeftForeArm  126.976 -78.6622 -120.639
LeftHand  -0.541119 -3.80536 7.08393
RightShoulder  0.59486 -0.976051 17.0776
RightArm  -15.6287 -12.3336 43.2867
RightForeArm  97.7908 79.309 103.994
RightHand  -0.186667 8.02647 -1.98542
LeftUpLeg  5.75615 2.49487 2.28651
LeftLeg  -6.79009 44.9215 -4.84362
LeftFoot  -0.0836616 0.401084 -4.06402
LeftToes  4.7643e-008 1.47522e-008 1.32869e-009
153
root  -3.1335 40.9669 0.0258214 178.273 -61.348 -176.21
RightUpLeg  -1.70053 1.62806 1.43867
RightLeg  -2.9394 2.4355 0.628181
RightFoot  3.52295 -0.436112 3.52631
RightToes  -3.10678e-008 1.75238e-005 3.56266e-009
Spine  8.82678 -5.81664 -10.3982
Spine1  -14.5729 -6.86799 15.139
HEad  -8.64131 -18.0695 4.17046
LeftShoulder1  1.25712 -1.23404 -20.0692
LeftArm  -18.0456 -10.5102 -45.6091
LeftForeArm  127.452 -78.6246 -121.013
LeftHand  -0.611335 -4.41253 7.52087
RightShoulder  0.538162 -1.16297 16.4543
RightArm  -16.0702 -11.8064 43.4144
RightForeArm  97.4301 79.3636 103.199
RightHand  -0.247314 8.36791 -2.46381
LeftUpLeg  5.7666 2.57681 2.58343
LeftLeg  -6.9611 43.994 -4.88925
LeftFoot  0.0437701 0.402615 -4.04468
LeftToes  4.7643e-008 1.47522e-008 1.32869e-009
154
root  -3.14474 40.9683 -0.0413451 178.198 -61.9744 -176.146
RightUpLeg  -1.51617 1.44213 1.41228
RightLeg  -3.04923 1.98237 0.817997
RightFoot  3.45247 -0.429483 3.4881
RightToes  -3.10678e-008 1.75238e-005 3.56266e-009
Spine  9.03835 -5.79463 -10.3105
Spine1  -14.9267 -6.79983 14.9916
HEad  -9.09058 -17.4485 4.37607
LeftShoulder1  1.19477 -1.05243 -19.7269
LeftArm  -18.1364 -10.6424 -45.8484
LeftForeArm  126.524 -78.7648 -119.871
LeftHand  -0.571813 -4.24207 7.16948
RightShoulder  0.476519 -1.38272 15.9104
RightArm  -16.1954 -11.3887 43.6944
RightForeArm  95.4165 79.4637 100.917
RightHand  -0.332218 8.40069 -3.16925
LeftUpLeg  5.73086 2.60725 2.72017
LeftLeg  -6.80734 43.32 -4.73081
LeftFoot  0.0837306 0.407014 -4.09197
LeftToes  4.7643e-008 1.47522e-008 1.32869e-009
155
root  -3.14485 40.9695 -0.123549 177.993 -62.7755 -176.05
RightUpLeg  -1.21673 1.31371 1.45149
RightLeg  -3.14216 1.24941 1.00414
RightFoot  3.3222 -0.390473 3.20996
RightToes  -3.10678e-008 1.75238e-005 3.56266e-009
Spine  8.96366 -5.91248 -10.6527
Spine1  -14.6314 -6.97989 15.2192
HEad  -9.44063 -16.8673 4.10331
LeftShoulder1  1.13792 -0.878733 -19.4466
LeftArm  -18.0189 -10.4626 -45.902
LeftForeArm  126.392 -78.83 -119.423
LeftHand  -0.601974 -4.18874 7.57124
RightShoulder  0.537344 -1.14559 16.2382
RightArm  -16.1141 -10.8699 43.0736
RightForeArm  93.2225 79.519 98.8958
RightHand  -0.372843 8.44045 -3.49549
LeftUpLeg  5.68085 2.70421 2.92524
LeftLeg  -6.37188 42.4269 -4.39314
LeftFoot  0.0575212 0.411971 -4.15718
LeftToes  4.7643e-008 1.47522e-008 1.32869e-009
156
root  -3.14807 40.9706 -0.199968 177.903 -63.5945 -175.926
RightUpLeg  -1.06732 1.29291 1.53168
RightLeg  -3.25912 0.359352 1.13035
RightFoot  3.27097 -0.34759 2.88414
RightToes  -3.10678e-008 1.75238e-005 3.56266e-009
Spine  8.40254 -5.78034 -10.8809
Spine1  -13.8441 -6.94573 15.4982
HEad  -9.84228 -16.5287 4.44806
LeftShoulder1  1.27049 -1.28734 -20.0532
LeftArm  -17.8922 -10.4523 -45.0419
LeftForeArm  126.133 -78.8224 -119.384
LeftHand  -0.580454 -4.31805 7.22246
RightShoulder  0.44349 -1.53636 16.0234
RightArm  -15.9819 -10.2894 42.8659
RightForeArm  92.144 79.5333 98.0132
RightHand  -0.273201 8.18898 -2.7037
LeftUpLeg  5.52519 2.84109 3.17275
LeftLeg  -6.07623 41.4231 -4.22662
LeftFoot  0.0934464 0.409581 -4.1148
LeftToes  4.7643e-008 1.47522e-008 1.32869e-009
157
root  -3.16659 40.971 -0.261205 177.591 -64.4012 -175.818
RightUpLeg  -0.676841 1.1196 1.53535
RightLeg  -3.31502 -0.265401 1.29458
RightFoot  3.15857 -0.316351 2.65552
RightToes  -3.10678e-008 1.75238e-005 3.56266e-009
Spine  8.03802 -5.75454 -10.99
Spine1  -13.0802 -7.01347 15.4979
HEad  -9.64117 -15.7527 4.52271
LeftShoulder1  1.30531 -1.43008 -19.9824
LeftArm  -17.3129 -9.79055 -44.5635
LeftForeArm  125.304 -78.8056 -119.217
LeftHand  -0.620248 -4.11851 7.84412
RightShoulder  0.513161 -1.25818 16.3148
RightArm  -15.6014 -9.10396 41.7632
RightForeArm  88.8703 79.5711 95.128
RightHand  -0.443569 8.21407 -4.15451
LeftUpLeg  5.65592 2.87257 3.29894
LeftLeg  -5.85933 40.6026 -3.98179
LeftFoot  0.104483 0.417724 -4.24109
LeftToes  4.7643e-008 1.47522e-008 1.32869e-009
158
root  -3.15295 40.9698 -0.288932 177.236 -64.8413 -175.844
RightUpLeg  -0.315224 1.08831 1.5765
RightLeg  -3.1428 -0.657361 1.25291
RightFoot  3.01176 -0.298278 2.53127
RightToes  -3.10678e-008 1.75238e-005 3.56266e-009
Spine  8.09797 -5.69641 -10.8253
Spine1  -12.4551 -7.04372 15.2375
HEad  -9.33699 -14.3365 4.15441
LeftShoulder1  1.25119 -1.26645 -19.7404
LeftArm  -16.7445 -8.77313 -43.557
LeftForeArm  122.696 -78.9612 -117.302
LeftHand  -0.626052 -4.44708 7.66846
RightShoulder  0.597694 -0.914021 16.5508
RightArm  -14.7297 -6.23153 40.5071
RightForeArm  83.4675 79.6331 89.2787
RightHand  -0.377908 8.23168 -3.59323
LeftUpLeg  5.96767 2.89378 3.34042
LeftLeg  -5.72583 40.1449 -3.82827
LeftFoot  0.0787345 0.420969 -4.29331
LeftToes  4.7643e-008 1.47522e-008 1.32869e-009
159
root  -3.12097 40.9621 -0.299005 176.77 -64.9125 -175.833
RightUpLeg  0.0694597 1.18236 1.7133
RightLeg  -2.98261 -0.832158 1.12754
RightFoot  2.95068 -0.25995 2.23394
RightToes  -3.10678e-008 1.75238e-005 3.56266e-009
Spine  8.58246 -5.3297 -10.2439
Spine1  -12.3205 -6.69873 14.6542
HEad  -8.82663 -12.7027 3.70957
LeftShoulder1  1.3012 -1.43775 -19.8516
LeftArm  -15.8982 -7.2029 -41.4257
LeftForeArm  116.528 -79.4098 -111.616
LeftHand  -0.61072 -4.52396 7.43536
RightShoulder  0.622361 -0.759349 16.0818
RightArm  -13.9387 -2.86355 39.2392
RightForeArm  79.7896 79.6072 85.4506
RightHand  -0.295686 8.5558 -2.83859
LeftUpLeg  6.21053 3.03181 3.44304
LeftLeg  -5.15646 39.9329 -3.47818
LeftFoot  -0.0622728 0.427921 -4.40324
LeftToes  4.7643e-008 1.47522e-008 1.32869e-009
160
root  -3.11139 40.959 -0.298113 176.498 -64.7574 -175.837
RightUpLeg  0.291607 1.20879 1.76491
RightLeg  -2.87678 -0.706921 1.06413
RightFoot  2.88674 -0.265424 2.28002
RightToes  -3.10678e-008 1.75238e-005 3.56266e-009
Spine  8.4759 -5.06548 -9.4717
Spine1  -11.7259 -6.43985 13.8748
HEad  -8.07117 -10.925 3.05666
LeftShoulder1  1.32569 -1.54858 -19.7518
LeftArm  -15.2646 -5.39172 -38.3389
LeftForeArm  108.221 -79.7957 -104.166
LeftHand  -0.622975 -4.65756 7.48972
RightShoulder  0.748075 -0.209667 16.1021
RightArm  -13.2306 1.45781 36.4345
RightForeArm  76.353 79.5285 82.4923
RightHand  -0.306991 8.40413 -2.95619
LeftUpLeg  6.34915 3.16609 3.51504
LeftLeg  -4.68565 39.9312 -3.24163
LeftFoot  -0.200002 0.437123 -4.54584
LeftToes  4.7643e-008 1.47522e-008 1.32869e-009
161
root  -3.08999 40.9568 -0.297051 176.359 -64.6332 -175.766
RightUpLeg  0.375732 1.22954 1.82364
RightLeg  -2.94733 -0.626707 1.08083
RightFoot  2.97394 -0.252855 2.14897
RightToes  -3.10678e-008 1.75238e-005 3.56266e-009
Spine  8.49684 -4.71728 -8.38115
Spine1  -11.3133 -6.02777 12.6645
HEad  -7.69819 -8.72886 3.58129
LeftShoulder1  1.25777 -1.3879 -19.1872
LeftArm  -14.4512 -3.6938 -35.6821
LeftForeArm  101.248 -79.943 -98.309
LeftHand  -0.5971 -3.82314 7.77849
RightShoulder  0.702828 -0.299691 15.2329
RightArm  -13.1523 5.57306 34.1006
RightForeArm  72.7724 79.415 79.4479
RightHand  -0.209885 8.04929 -2.18417
LeftUpLeg  6.28336 3.30972 3.6346
LeftLeg  -4.32658 39.8969 -3.11066
LeftFoot  -0.310153 0.435196 -4.51025
LeftToes  4.7643e-008 1.47522e-008 1.32869e-009
162
root  -3.06422 40.9608 -0.299971 176.487 -64.8471 -175.834
RightUpLeg  0.340293 1.14542 1.75711
RightLeg  -3.06419 -0.790829 1.16163
RightFoot  3.00145 -0.246254 2.12035
RightToes  -3.10678e-008 1.75238e-005 3.56266e-009
Spine  8.64321 -4.47341 -7.14916
Spine1  -11.3584 -5.61483 11.0095
HEad  -7.66713 -6.47164 3.94387
LeftShoulder1  1.17608 -1.19042 -18.4691
LeftArm  -13.5404 -2.11335 -32.8471
LeftForeArm  98.3023 -79.9873 -95.6033
LeftHand  -0.647498 -4.02434 8.24862
RightShoulder  0.623047 -0.534389 14.2161
RightArm  -14.1034 8.08257 31.9559
RightForeArm  68.5738 79.2429 75.6108
RightHand  -0.164244 7.96265 -1.79822
LeftUpLeg  6.14541 3.29058 3.6312
LeftLeg  -4.33909 39.7122 -3.14001
LeftFoot  -0.245018 0.431583 -4.44132
LeftToes  4.7643e-008 1.47522e-008 1.32869e-009
163
root  -3.01753 40.9665 -0.325497 176.903 -65.571 -176.012
RightUpLeg  0.0899532 1.11647 1.66623
RightLeg  -3.1543 -1.49676 1.21024
RightFoot  3.02763 -0.245734 2.11276
RightToes  -3.10678e-008 1.75238e-005 3.56266e-009
Spine  8.7335 -4.37598 -6.15972
Spine1  -11.3938 -5.34516 9.32978
HEad  -7.31847 -4.32583 4.87221
LeftShoulder1  1.0807 -1.00493 -17.3058
LeftArm  -13.3587 -0.561748 -30.957
LeftForeArm  98.9649 -79.94 -96.7958
LeftHand  -0.587717 -3.86441 7.63869
RightShoulder  0.592324 -0.627192 13.761
RightArm  -16.0752 9.03738 29.4263
RightForeArm  64.5165 79.0289 72.2573
RightHand  -0.287429 8.04635 -2.85277
LeftUpLeg  5.78169 3.20461 3.60127
LeftLeg  -4.51937 39.0859 -3.2631
LeftFoot  -0.0716789 0.422693 -4.2808
LeftToes  4.7643e-008 1.47522e-008 1.32869e-009
